<svg xmlns="http://www.w3.org/2000/svg" width="750" height="750" viewBox="0 0 750 750">
<g>
<path d="M 654.04 707.38 L 645.50 710.50 L 379.00 710.68 C363.40,710.69 348.68,710.70 334.81,710.71 C117.27,710.87 106.49,710.87 97.41,706.95 C96.35,706.49 95.33,705.98 94.00,705.42 C74.89,697.24 60.61,682.43 52.94,662.81 L 49.69 654.50 L 48.82 628.66 C48.34,614.44 48.07,489.34 48.23,350.66 L 48.50 98.50 L 51.31 90.56 C55.71,78.11 60.56,70.31 69.43,61.43 C78.70,52.16 84.71,48.45 98.02,43.81 L 107.50 40.50 L 376.00 40.50 C630.45,40.50 644.84,40.59 651.00,42.28 C674.35,48.68 692.62,65.76 700.78,88.81 L 703.50 96.50 L 703.76 371.26 C703.78,392.85 703.80,412.78 703.82,431.21 C704.05,643.27 704.07,654.95 699.38,664.27 C698.70,665.63 697.92,666.93 697.03,668.79 C691.76,679.79 685.37,687.89 676.28,695.11 C667.52,702.07 665.41,703.24 654.04,707.38 ZM 103.15 660.00 C108.38,661.88 114.50,661.93 374.57,661.96 C616.33,662.00 641.13,661.85 646.07,660.39 C654.14,658.00 658.74,655.35 664.80,649.64 C671.50,643.31 674.99,638.29 678.10,630.50 L 680.50 624.50 L 680.77 366.50 C680.95,183.29 680.72,106.97 679.94,103.24 C679.34,100.34 677.29,94.84 675.37,91.02 C671.07,82.43 664.32,76.14 654.00,71.14 L 646.50 67.50 L 380.00 67.24 C192.32,67.05 111.96,67.29 108.28,68.05 C94.98,70.80 82.09,80.97 75.85,93.65 L 72.50 100.46 L 72.50 628.50 L 75.68 635.22 C81.05,646.55 91.20,655.70 103.15,660.00 ZM 643.11 635.94 C639.11,637.99 638.28,638.00 519.79,637.96 C513.12,637.96 506.81,637.96 500.85,637.96 C404.74,637.94 396.99,637.94 393.34,634.07 C392.80,633.49 392.35,632.82 391.70,632.06 L 389.00 628.85 L 389.00 402.97 L 395.85 395.50 L 518.17 395.24 C609.38,395.04 641.22,395.27 643.31,396.13 C644.86,396.77 647.23,398.91 648.56,400.88 L 651.00 404.46 L 650.98 514.98 C650.96,621.46 650.89,625.65 649.05,629.69 C647.71,632.66 645.97,634.48 643.11,635.94 ZM 355.69 636.05 C351.64,637.89 347.46,637.95 233.00,637.86 C167.82,637.81 113.60,637.54 112.50,637.27 C111.40,636.99 109.26,635.88 107.73,634.80 C106.96,634.25 106.28,633.89 105.70,633.41 C101.98,630.36 101.98,622.78 102.00,533.26 C102.00,527.53 102.00,521.46 102.00,515.03 L 102.00 402.97 L 108.85 395.50 L 231.67 395.25 C353.47,395.00 354.53,395.01 357.81,397.02 C358.66,397.54 359.39,397.89 360.03,398.37 C364.01,401.38 364.01,409.67 364.00,499.68 C364.00,504.85 364.00,510.29 364.00,516.01 C364.00,625.15 363.98,626.11 361.94,630.11 C360.48,632.97 358.66,634.71 355.69,636.05 ZM 646.93 168.37 L 644.85 171.00 L 107.27 171.00 L 104.63 168.93 L 102.00 166.85 L 102.00 128.43 C102.00,91.33 102.07,89.93 104.00,88.00 C105.99,86.01 107.33,86.00 376.46,86.00 C642.84,86.00 646.95,86.03 647.96,87.93 C648.63,89.17 649.00,103.57 649.00,127.80 C649.00,164.66 648.94,165.80 646.93,168.37 ZM 642.93 368.25 C639.72,369.88 631.79,370.00 520.00,370.00 C402.59,370.00 400.43,369.96 396.47,368.00 C395.00,367.28 393.82,366.87 392.87,366.16 C388.97,363.22 388.98,355.10 389.00,298.35 C389.00,294.03 389.00,289.41 389.00,284.50 C389.00,209.45 389.02,208.78 391.08,205.89 C391.65,205.08 392.02,204.38 392.50,203.78 C395.54,199.98 403.34,199.98 499.36,200.00 C506.09,200.00 513.25,200.00 520.87,200.00 L 642.85 200.00 L 645.79 202.48 C647.41,203.84 649.26,206.21 649.89,207.73 C650.73,209.76 650.97,230.81 650.77,285.68 C650.50,359.93 650.47,360.89 648.43,363.68 C647.29,365.23 644.81,367.29 642.93,368.25 ZM 355.93 368.25 C352.72,369.88 344.79,370.00 233.00,370.00 L 113.50 370.00 L 109.21 367.88 C107.85,367.20 106.75,366.81 105.86,366.13 C101.98,363.22 101.98,355.14 102.00,297.38 C102.00,293.42 102.00,289.23 102.00,284.80 C102.01,211.88 102.07,209.40 103.96,206.30 C104.52,205.37 104.85,204.58 105.33,203.90 C108.14,199.98 116.44,199.98 210.53,200.00 C217.59,200.00 225.14,200.00 233.20,200.00 C353.10,200.01 354.54,200.03 357.81,202.03 C358.75,202.60 359.54,203.03 360.22,203.60 C364.06,206.85 364.03,214.66 363.80,278.60 C363.79,280.97 363.78,283.41 363.77,285.94 C363.50,359.92 363.47,360.89 361.43,363.68 C360.29,365.23 357.81,367.29 355.93,368.25 ZM 428.17 615.11 C433.09,616.83 436.75,616.96 476.00,616.74 C517.97,616.50 518.55,616.47 522.72,614.24 C533.77,608.34 538.45,600.39 537.83,588.58 C537.49,582.06 536.69,579.87 527.80,561.00 C515.04,533.91 496.24,494.24 494.44,490.60 C493.32,488.33 493.00,482.75 493.00,465.35 L 493.00 443.00 L 454.00 443.00 L 454.00 487.50 L 445.93 505.00 C411.47,579.74 410.00,583.22 410.02,590.07 C410.04,594.20 410.71,597.93 411.90,600.50 C414.65,606.40 421.92,612.93 428.17,615.11 ZM 222.20 610.80 C222.98,611.58 227.11,612.00 234.08,612.00 C242.78,612.00 245.01,611.69 246.13,610.35 C247.06,609.23 247.61,605.10 247.83,597.51 L 248.16 586.32 L 255.63 584.70 C271.41,581.27 284.34,572.15 290.15,560.34 C293.01,554.53 293.40,552.68 293.78,543.17 C294.31,529.63 292.22,523.23 284.64,515.22 C276.15,506.24 265.12,501.92 242.00,498.54 C223.01,495.76 215.76,493.36 212.57,488.79 C210.74,486.18 210.53,481.13 212.10,477.67 C214.81,471.73 228.40,468.30 242.59,469.99 C252.71,471.20 256.92,472.43 265.29,476.65 C269.03,478.53 272.55,479.78 273.13,479.42 C274.77,478.40 287.00,459.12 287.00,457.54 C287.00,454.11 271.14,446.67 257.00,443.46 L 247.50 441.30 L 247.21 431.46 C247.05,426.04 246.44,421.02 245.84,420.31 C244.31,418.46 223.69,418.47 222.16,420.31 C221.56,421.03 220.95,426.25 220.79,431.92 L 220.50 442.23 L 213.00 444.12 C191.13,449.61 178.61,463.10 177.25,482.66 C176.86,488.23 177.24,491.44 178.96,497.16 C180.90,503.61 181.92,505.24 187.33,510.55 C197.05,520.09 204.68,522.74 237.43,527.96 C253.24,530.48 258.30,532.95 260.12,539.02 C263.00,548.61 256.52,555.72 242.79,558.04 C229.07,560.35 210.58,556.10 198.32,547.82 C191.35,543.11 190.10,543.64 181.54,554.95 C177.39,560.43 174.00,565.58 174.00,566.40 C174.00,571.54 206.92,586.00 218.63,586.00 C220.99,586.00 221.00,586.05 221.00,597.80 C221.00,605.64 221.40,610.00 222.20,610.80 ZM 518.67 602.77 C515.83,604.32 511.39,604.52 475.50,604.66 C453.50,604.74 434.60,604.58 433.50,604.30 C430.36,603.51 425.14,599.18 423.50,596.00 C420.84,590.85 421.65,586.47 427.75,573.17 C430.91,566.28 435.98,555.25 439.00,548.67 C442.27,541.57 445.52,535.95 447.00,534.85 C450.07,532.56 452.07,532.48 479.33,533.50 C499.90,534.27 501.24,534.44 502.53,536.41 C503.28,537.56 508.93,549.08 515.09,562.00 C524.14,581.01 526.29,586.37 526.33,590.08 C526.39,595.43 523.59,600.08 518.67,602.77 ZM 220.67 339.33 C221.03,339.70 226.87,340.00 233.63,340.00 C244.77,340.00 246.03,339.82 246.96,338.07 C247.57,336.93 248.00,328.30 248.00,317.07 L 248.00 298.00 L 267.38 298.00 C282.70,298.00 287.00,297.71 287.91,296.61 C288.68,295.68 288.97,291.12 288.78,282.86 L 288.50 270.50 L 268.25 270.23 L 248.00 269.96 L 247.98 250.23 C247.98,239.38 247.60,229.92 247.16,229.22 C246.55,228.26 243.09,228.01 233.42,228.22 L 220.50 228.50 L 219.50 269.50 L 199.58 269.77 C186.94,269.94 179.17,270.45 178.33,271.14 C177.36,271.95 177.00,275.47 177.00,284.09 C177.00,294.77 177.19,296.03 178.93,296.96 C180.08,297.58 188.86,298.00 200.43,298.00 L 220.00 298.00 L 220.00 318.33 C220.00,329.52 220.30,338.97 220.67,339.33 ZM 456.00 296.00 C457.10,297.10 458.36,298.00 458.81,298.00 C461.06,298.00 463.15,294.90 464.55,289.50 C466.65,281.38 469.84,276.26 476.71,269.97 C489.22,258.52 506.30,253.94 533.25,254.79 L 540.00 255.00 L 540.00 263.30 C540.00,271.83 540.84,274.00 544.14,274.00 C545.70,274.00 571.70,260.65 586.00,252.52 C591.46,249.40 593.24,246.31 591.26,243.37 C590.84,242.76 580.86,236.34 569.07,229.12 C542.47,212.83 540.43,212.51 539.81,224.48 L 539.50 230.39 L 523.50 230.56 C505.28,230.76 496.58,232.34 485.50,237.46 C464.31,247.26 454.06,262.99 454.01,285.75 C454.00,292.68 454.32,294.32 456.00,296.00 ZM 491.49 342.60 C496.44,345.57 501.05,348.00 501.74,348.00 C504.79,348.00 507.00,344.06 507.00,338.63 L 507.00 333.26 L 523.25 332.76 C537.96,332.31 540.40,331.97 549.01,329.16 C576.13,320.31 589.00,303.69 589.00,277.52 C589.00,266.83 588.33,265.00 584.42,265.00 C581.51,265.00 580.37,266.62 579.49,272.00 C576.86,288.10 560.53,302.27 539.79,306.45 C535.27,307.36 526.91,308.00 519.54,308.00 L 507.00 308.00 L 507.00 300.20 C507.00,295.47 506.53,291.93 505.80,291.20 C503.64,289.04 499.63,289.99 490.50,294.86 C485.55,297.49 475.81,302.67 468.85,306.35 C461.89,310.04 455.67,313.70 455.02,314.47 C452.09,318.00 454.17,320.20 468.50,328.80 C476.20,333.42 486.55,339.63 491.49,342.60 ZM 558.14 606.98 C560.54,607.48 569.47,607.75 578.00,607.56 C595.74,607.18 601.26,605.93 618.48,598.39 C631.29,592.78 635.00,589.67 635.00,584.55 C635.00,582.03 634.25,580.16 632.59,578.50 C629.82,575.73 628.93,575.50 615.98,574.28 C608.01,573.52 605.28,572.77 599.17,569.65 C592.50,566.26 575.01,555.27 557.67,543.60 C549.78,538.29 547.45,537.50 543.74,538.91 C539.04,540.70 539.22,543.99 544.50,553.00 C553.84,568.93 556.87,583.62 553.11,594.72 C551.95,598.14 551.00,601.57 551.00,602.35 C551.00,604.47 553.31,605.97 558.14,606.98 ZM 511.12 156.55 C520.20,159.49 530.32,155.90 535.20,148.00 C540.33,139.69 541.38,122.88 537.45,111.69 C531.56,94.86 507.57,93.36 499.28,109.30 C496.87,113.93 496.53,115.82 496.19,126.59 C495.85,137.28 496.05,139.25 497.97,143.70 C500.70,150.05 505.48,154.73 511.12,156.55 ZM 560.10 479.75 C564.50,484.29 568.54,488.00 569.07,488.00 C569.60,488.00 571.70,486.47 573.74,484.60 L 577.45 481.20 L 559.59 462.95 L 567.80 454.71 C572.31,450.17 576.00,445.99 576.00,445.42 C576.00,443.67 570.52,439.00 568.45,438.98 C567.29,438.97 563.55,442.12 559.25,446.73 L 552.00 454.50 L 544.75 446.73 C540.07,441.71 536.75,438.97 535.38,438.98 C532.71,439.01 528.00,442.65 528.00,444.69 C528.00,445.55 531.69,450.03 536.20,454.65 L 544.40 463.05 L 536.20 471.30 C531.69,475.83 528.00,480.05 528.00,480.68 C528.00,482.07 533.70,487.00 535.30,487.00 C535.94,487.00 539.97,483.51 544.27,479.25 L 552.09 471.50 ZM 584.25 456.34 C586.08,457.08 608.22,457.11 611.88,456.38 C614.73,455.80 615.00,455.42 615.00,451.88 L 615.00 448.00 L 607.00 448.00 C602.60,448.00 599.00,447.65 599.00,447.22 C599.00,446.79 601.73,443.75 605.08,440.47 C608.42,437.19 611.86,433.15 612.73,431.50 C614.68,427.80 614.53,421.46 612.42,418.24 C607.70,411.03 591.39,411.38 584.65,418.83 C582.48,421.23 583.01,422.44 587.22,424.61 C589.92,426.01 590.41,426.02 591.13,424.74 C592.36,422.54 597.61,420.68 600.51,421.41 C601.92,421.77 603.57,423.15 604.18,424.49 C605.68,427.80 604.28,429.74 592.56,440.63 C584.36,448.24 583.00,449.95 583.00,452.67 C583.00,454.41 583.56,456.06 584.25,456.34 ZM 447.45 433.55 L 449.91 436.00 L 472.84 436.00 C493.64,436.00 495.99,435.83 498.06,434.16 C501.35,431.49 501.14,426.38 497.61,423.34 C494.94,421.04 494.49,421.00 473.49,421.00 C450.75,421.00 448.02,421.46 446.11,425.66 C444.47,429.26 444.73,430.82 447.45,433.55 ZM 524.44 145.65 C519.69,150.40 510.58,147.65 508.03,140.68 C506.72,137.12 506.69,120.58 507.98,116.08 C509.59,110.45 512.63,108.00 518.02,108.00 C525.17,108.00 527.58,111.57 528.59,123.62 C529.41,133.45 527.73,142.36 524.44,145.65 ZM 555.56 116.78 C557.08,118.95 557.58,119.00 577.23,119.00 C594.54,119.00 597.60,118.77 599.17,117.35 C601.26,115.45 601.57,111.97 599.80,110.20 C598.94,109.34 592.66,109.00 577.87,109.00 C560.36,109.00 556.90,109.24 555.57,110.57 C553.59,112.55 553.59,113.97 555.56,116.78 ZM 556.25 138.49 C558.17,139.87 561.37,140.06 578.10,139.80 C598.94,139.48 601.00,139.01 601.00,134.58 C601.00,133.38 600.46,131.86 599.80,131.20 C598.10,129.50 556.90,129.50 555.20,131.20 C553.28,133.12 553.81,136.75 556.25,138.49 ZM 454.45 581.55 C456.00,583.09 458.05,584.00 460.00,584.00 C466.74,584.00 470.23,576.11 465.93,570.63 C464.29,568.55 462.99,568.00 459.76,568.00 C454.36,568.00 452.00,570.19 452.00,575.20 C452.00,578.00 452.69,579.78 454.45,581.55 ZM 472.25 563.00 C475.88,565.22 478.61,564.85 481.25,561.80 C485.20,557.24 481.98,550.00 476.00,550.00 C471.92,550.00 469.00,553.13 469.00,557.51 C469.00,560.41 469.57,561.38 472.25,563.00 ZM 482.63 582.93 C486.10,585.65 488.55,585.54 491.55,582.55 C496.22,577.87 493.68,571.00 487.27,571.00 C482.64,571.00 480.00,573.39 480.00,577.58 C480.00,579.93 480.75,581.44 482.63,582.93 ZM 486.55 520.55 C485.20,521.90 483.46,523.00 482.68,523.00 C480.12,523.00 476.00,518.95 476.00,516.43 C476.00,510.75 484.28,507.70 487.44,512.22 C489.64,515.35 489.38,517.71 486.55,520.55 ZM 466.00 525.35 C466.00,527.93 463.53,529.11 461.42,527.54 C459.62,526.21 459.61,526.01 461.17,524.42 C463.01,522.56 466.00,523.13 466.00,525.35 ZM 463.75 506.75 C463.99,507.48 463.31,508.00 462.08,508.00 C460.86,508.00 460.00,507.35 460.00,506.43 C460.00,504.59 463.12,504.86 463.75,506.75 Z" fill="rgb(26,26,25)"/>
<path d="M 0.00 375.00 L 0.00 0.00 L 375.00 0.00 L 750.00 0.00 L 750.00 375.00 L 750.00 750.00 L 375.00 750.00 L 0.00 750.00 L 0.00 375.00 ZM 654.04 707.38 C665.41,703.24 667.52,702.07 676.28,695.11 C685.37,687.89 691.76,679.79 697.03,668.79 C704.60,653.01 704.05,677.28 703.76,371.26 L 703.50 96.50 L 700.78 88.81 C692.62,65.76 674.35,48.68 651.00,42.28 C644.84,40.59 630.45,40.50 376.00,40.50 L 107.50 40.50 L 98.02 43.81 C84.71,48.45 78.70,52.16 69.43,61.43 C60.56,70.31 55.71,78.11 51.31,90.56 L 48.50 98.50 L 48.23 350.66 C48.07,489.34 48.34,614.44 48.82,628.66 L 49.69 654.50 L 52.94 662.81 C60.61,682.43 74.89,697.24 94.00,705.42 C107.49,711.19 90.28,710.87 379.00,710.68 L 645.50 710.50 L 654.04 707.38 ZM 103.15 660.00 C91.20,655.70 81.05,646.55 75.68,635.22 L 72.50 628.50 L 72.50 364.48 L 72.50 100.46 L 75.85 93.65 C82.09,80.97 94.98,70.80 108.28,68.05 C111.96,67.29 192.32,67.05 380.00,67.24 L 646.50 67.50 L 654.00 71.14 C664.32,76.14 671.07,82.43 675.37,91.02 C677.29,94.84 679.34,100.34 679.94,103.24 C680.72,106.97 680.95,183.29 680.77,366.50 L 680.50 624.50 L 678.10 630.50 C674.99,638.29 671.50,643.31 664.80,649.64 C658.74,655.35 654.14,658.00 646.07,660.39 C641.13,661.85 616.33,662.00 374.57,661.96 C114.50,661.93 108.38,661.88 103.15,660.00 ZM 355.69 636.05 C358.66,634.71 360.48,632.97 361.94,630.11 C363.98,626.11 364.00,625.15 364.00,516.01 C364.00,394.82 364.32,401.00 357.81,397.02 C354.53,395.01 353.47,395.00 231.67,395.25 L 108.85 395.50 L 105.42 399.24 L 102.00 402.97 L 102.00 515.03 C102.00,637.49 101.66,630.50 107.73,634.80 C109.26,635.88 111.40,636.99 112.50,637.27 C113.60,637.54 167.82,637.81 233.00,637.86 C347.46,637.95 351.64,637.89 355.69,636.05 ZM 643.11 635.94 C645.97,634.48 647.71,632.66 649.05,629.69 C650.89,625.65 650.96,621.46 650.98,514.98 L 651.00 404.46 L 648.56 400.88 C647.23,398.91 644.86,396.77 643.31,396.13 C641.22,395.27 609.38,395.04 518.17,395.24 L 395.85 395.50 L 392.42 399.24 L 389.00 402.97 L 389.00 515.91 L 389.00 628.85 L 391.70 632.06 C396.92,638.25 389.63,637.92 519.79,637.96 C638.28,638.00 639.11,637.99 643.11,635.94 ZM 355.93 368.25 C357.81,367.29 360.29,365.23 361.43,363.68 C363.47,360.89 363.50,359.92 363.77,285.94 C364.07,203.23 364.26,205.96 357.81,202.03 C354.54,200.03 353.10,200.01 233.20,200.00 C99.26,200.00 108.06,199.57 103.96,206.30 C102.07,209.40 102.01,211.88 102.00,284.80 C102.00,368.97 101.58,364.10 109.21,367.88 L 113.50 370.00 L 233.00 370.00 C344.79,370.00 352.72,369.88 355.93,368.25 ZM 642.93 368.25 C644.81,367.29 647.29,365.23 648.43,363.68 C650.47,360.89 650.50,359.93 650.77,285.68 C650.97,230.81 650.73,209.76 649.89,207.73 C649.26,206.21 647.41,203.84 645.79,202.48 L 642.85 200.00 L 520.87 200.00 C387.22,200.00 395.54,199.62 391.08,205.89 C389.02,208.78 389.00,209.45 389.00,284.50 C389.00,369.50 388.51,364.07 396.47,368.00 C400.43,369.96 402.59,370.00 520.00,370.00 C631.79,370.00 639.72,369.88 642.93,368.25 ZM 646.93 168.37 C648.94,165.80 649.00,164.66 649.00,127.80 C649.00,103.57 648.63,89.17 647.96,87.93 C646.95,86.03 642.84,86.00 376.46,86.00 C107.33,86.00 105.99,86.01 104.00,88.00 C102.07,89.93 102.00,91.33 102.00,128.43 L 102.00 166.85 L 104.63 168.93 L 107.27 171.00 L 376.06 171.00 L 644.85 171.00 L 646.93 168.37 ZM 222.20 610.80 C221.40,610.00 221.00,605.64 221.00,597.80 C221.00,586.05 220.99,586.00 218.63,586.00 C206.92,586.00 174.00,571.54 174.00,566.40 C174.00,565.58 177.39,560.43 181.54,554.95 C190.10,543.64 191.35,543.11 198.32,547.82 C210.58,556.10 229.07,560.35 242.79,558.04 C256.52,555.72 263.00,548.61 260.12,539.02 C258.30,532.95 253.24,530.48 237.43,527.96 C204.68,522.74 197.05,520.09 187.33,510.55 C181.92,505.24 180.90,503.61 178.96,497.16 C177.24,491.44 176.86,488.23 177.25,482.66 C178.61,463.10 191.13,449.61 213.00,444.12 L 220.50 442.23 L 220.79 431.92 C220.95,426.25 221.56,421.03 222.16,420.31 C223.69,418.47 244.31,418.46 245.84,420.31 C246.44,421.02 247.05,426.04 247.21,431.46 L 247.50 441.30 L 257.00 443.46 C271.14,446.67 287.00,454.11 287.00,457.54 C287.00,459.12 274.77,478.40 273.13,479.42 C272.55,479.78 269.03,478.53 265.29,476.65 C256.92,472.43 252.71,471.20 242.59,469.99 C228.40,468.30 214.81,471.73 212.10,477.67 C210.53,481.13 210.74,486.18 212.57,488.79 C215.76,493.36 223.01,495.76 242.00,498.54 C265.12,501.92 276.15,506.24 284.64,515.22 C292.22,523.23 294.31,529.63 293.78,543.17 C293.40,552.68 293.01,554.53 290.15,560.34 C284.34,572.15 271.41,581.27 255.63,584.70 L 248.16 586.32 L 247.83 597.51 C247.61,605.10 247.06,609.23 246.13,610.35 C245.01,611.69 242.78,612.00 234.08,612.00 C227.11,612.00 222.98,611.58 222.20,610.80 ZM 428.17 615.11 C421.92,612.93 414.65,606.40 411.90,600.50 C410.71,597.93 410.04,594.20 410.02,590.07 C410.00,583.22 411.47,579.74 445.93,505.00 L 454.00 487.50 L 454.00 465.25 L 454.00 443.00 L 473.50 443.00 L 493.00 443.00 L 493.00 465.35 C493.00,482.75 493.32,488.33 494.44,490.60 C496.24,494.24 515.04,533.91 527.80,561.00 C536.69,579.87 537.49,582.06 537.83,588.58 C538.45,600.39 533.77,608.34 522.72,614.24 C518.55,616.47 517.97,616.50 476.00,616.74 C436.75,616.96 433.09,616.83 428.17,615.11 ZM 518.67 602.77 C523.59,600.08 526.39,595.43 526.33,590.08 C526.29,586.37 524.14,581.01 515.09,562.00 C508.93,549.08 503.28,537.56 502.53,536.41 C501.24,534.44 499.90,534.27 479.33,533.50 C452.07,532.48 450.07,532.56 447.00,534.85 C445.52,535.95 442.27,541.57 439.00,548.67 C435.98,555.25 430.91,566.28 427.75,573.17 C421.65,586.47 420.84,590.85 423.50,596.00 C425.14,599.18 430.36,603.51 433.50,604.30 C434.60,604.58 453.50,604.74 475.50,604.66 C511.39,604.52 515.83,604.32 518.67,602.77 ZM 466.00 525.35 C466.00,523.13 463.01,522.56 461.17,524.42 C459.61,526.01 459.62,526.21 461.42,527.54 C463.53,529.11 466.00,527.93 466.00,525.35 ZM 486.55 520.55 C489.38,517.71 489.64,515.35 487.44,512.22 C484.28,507.70 476.00,510.75 476.00,516.43 C476.00,518.95 480.12,523.00 482.68,523.00 C483.46,523.00 485.20,521.90 486.55,520.55 ZM 463.75 506.75 C463.12,504.86 460.00,504.59 460.00,506.43 C460.00,507.35 460.86,508.00 462.08,508.00 C463.31,508.00 463.99,507.48 463.75,506.75 ZM 558.14 606.98 C553.31,605.97 551.00,604.47 551.00,602.35 C551.00,601.57 551.95,598.14 553.11,594.72 C556.87,583.62 553.84,568.93 544.50,553.00 C539.22,543.99 539.04,540.70 543.74,538.91 C547.45,537.50 549.78,538.29 557.67,543.60 C575.01,555.27 592.50,566.26 599.17,569.65 C605.28,572.77 608.01,573.52 615.98,574.28 C628.93,575.50 629.82,575.73 632.59,578.50 C634.25,580.16 635.00,582.03 635.00,584.55 C635.00,589.67 631.29,592.78 618.48,598.39 C601.26,605.93 595.74,607.18 578.00,607.56 C569.47,607.75 560.54,607.48 558.14,606.98 ZM 560.10 479.75 L 552.09 471.50 L 544.27 479.25 C539.97,483.51 535.94,487.00 535.30,487.00 C533.70,487.00 528.00,482.07 528.00,480.68 C528.00,480.05 531.69,475.83 536.20,471.30 L 544.40 463.05 L 536.20 454.65 C531.69,450.03 528.00,445.55 528.00,444.69 C528.00,442.65 532.71,439.01 535.38,438.98 C536.75,438.97 540.07,441.71 544.75,446.73 L 552.00 454.50 L 559.25 446.73 C563.55,442.12 567.29,438.97 568.45,438.98 C570.52,439.00 576.00,443.67 576.00,445.42 C576.00,445.99 572.31,450.17 567.80,454.71 L 559.59 462.95 L 568.52 472.08 L 577.45 481.20 L 573.74 484.60 C571.70,486.47 569.60,488.00 569.07,488.00 C568.54,488.00 564.50,484.29 560.10,479.75 ZM 584.25 456.34 C583.56,456.06 583.00,454.41 583.00,452.67 C583.00,449.95 584.36,448.24 592.56,440.63 C604.28,429.74 605.68,427.80 604.18,424.49 C603.57,423.15 601.92,421.77 600.51,421.41 C597.61,420.68 592.36,422.54 591.13,424.74 C590.41,426.02 589.92,426.01 587.22,424.61 C583.01,422.44 582.48,421.23 584.65,418.83 C591.39,411.38 607.70,411.03 612.42,418.24 C614.53,421.46 614.68,427.80 612.73,431.50 C611.86,433.15 608.42,437.19 605.08,440.47 C601.73,443.75 599.00,446.79 599.00,447.22 C599.00,447.65 602.60,448.00 607.00,448.00 L 615.00 448.00 L 615.00 451.88 C615.00,455.42 614.73,455.80 611.88,456.38 C608.22,457.11 586.08,457.08 584.25,456.34 ZM 447.45 433.55 C444.73,430.82 444.47,429.26 446.11,425.66 C448.02,421.46 450.75,421.00 473.49,421.00 C494.49,421.00 494.94,421.04 497.61,423.34 C501.14,426.38 501.35,431.49 498.06,434.16 C495.99,435.83 493.64,436.00 472.84,436.00 L 449.91 436.00 L 447.45 433.55 ZM 220.67 339.33 C220.30,338.97 220.00,329.52 220.00,318.33 L 220.00 298.00 L 200.43 298.00 C188.86,298.00 180.08,297.58 178.93,296.96 C177.19,296.03 177.00,294.77 177.00,284.09 C177.00,275.47 177.36,271.95 178.33,271.14 C179.17,270.45 186.94,269.94 199.58,269.77 L 219.50 269.50 L 220.00 249.00 L 220.50 228.50 L 233.42 228.22 C243.09,228.01 246.55,228.26 247.16,229.22 C247.60,229.92 247.98,239.38 247.98,250.23 L 248.00 269.96 L 268.25 270.23 L 288.50 270.50 L 288.78 282.86 C288.97,291.12 288.68,295.68 287.91,296.61 C287.00,297.71 282.70,298.00 267.38,298.00 L 248.00 298.00 L 248.00 317.07 C248.00,328.30 247.57,336.93 246.96,338.07 C246.03,339.82 244.77,340.00 233.63,340.00 C226.87,340.00 221.03,339.70 220.67,339.33 ZM 491.49 342.60 C486.55,339.63 476.20,333.42 468.50,328.80 C454.17,320.20 452.09,318.00 455.02,314.47 C455.67,313.70 461.89,310.04 468.85,306.35 C475.81,302.67 485.55,297.49 490.50,294.86 C499.63,289.99 503.64,289.04 505.80,291.20 C506.53,291.93 507.00,295.47 507.00,300.20 L 507.00 308.00 L 519.54 308.00 C526.91,308.00 535.27,307.36 539.79,306.45 C560.53,302.27 576.86,288.10 579.49,272.00 C580.37,266.62 581.51,265.00 584.42,265.00 C588.33,265.00 589.00,266.83 589.00,277.52 C589.00,303.69 576.13,320.31 549.01,329.16 C540.40,331.97 537.96,332.31 523.25,332.76 L 507.00 333.26 L 507.00 338.63 C507.00,344.06 504.79,348.00 501.74,348.00 C501.05,348.00 496.44,345.57 491.49,342.60 ZM 456.00 296.00 C454.32,294.32 454.00,292.68 454.01,285.75 C454.06,262.99 464.31,247.26 485.50,237.46 C496.58,232.34 505.28,230.76 523.50,230.56 L 539.50 230.39 L 539.81 224.48 C540.43,212.51 542.47,212.83 569.07,229.12 C580.86,236.34 590.84,242.76 591.26,243.37 C593.24,246.31 591.46,249.40 586.00,252.52 C571.70,260.65 545.70,274.00 544.14,274.00 C540.84,274.00 540.00,271.83 540.00,263.30 L 540.00 255.00 L 533.25 254.79 C506.30,253.94 489.22,258.52 476.71,269.97 C469.84,276.26 466.65,281.38 464.55,289.50 C463.15,294.90 461.06,298.00 458.81,298.00 C458.36,298.00 457.10,297.10 456.00,296.00 ZM 511.12 156.55 C505.48,154.73 500.70,150.05 497.97,143.70 C496.05,139.25 495.85,137.28 496.19,126.59 C496.53,115.82 496.87,113.93 499.28,109.30 C507.57,93.36 531.56,94.86 537.45,111.69 C541.38,122.88 540.33,139.69 535.20,148.00 C530.32,155.90 520.20,159.49 511.12,156.55 ZM 524.44 145.65 C527.73,142.36 529.41,133.45 528.59,123.62 C527.58,111.57 525.17,108.00 518.02,108.00 C512.63,108.00 509.59,110.45 507.98,116.08 C506.69,120.58 506.72,137.12 508.03,140.68 C510.58,147.65 519.69,150.40 524.44,145.65 ZM 556.25 138.49 C553.81,136.75 553.28,133.12 555.20,131.20 C556.90,129.50 598.10,129.50 599.80,131.20 C600.46,131.86 601.00,133.38 601.00,134.58 C601.00,139.01 598.94,139.48 578.10,139.80 C561.37,140.06 558.17,139.87 556.25,138.49 ZM 555.56 116.78 C553.59,113.97 553.59,112.55 555.57,110.57 C556.90,109.24 560.36,109.00 577.87,109.00 C592.66,109.00 598.94,109.34 599.80,110.20 C601.57,111.97 601.26,115.45 599.17,117.35 C597.60,118.77 594.54,119.00 577.23,119.00 C557.58,119.00 557.08,118.95 555.56,116.78 ZM 482.63 582.93 C480.75,581.44 480.00,579.93 480.00,577.58 C480.00,573.39 482.64,571.00 487.27,571.00 C493.68,571.00 496.22,577.87 491.55,582.55 C488.55,585.54 486.10,585.65 482.63,582.93 ZM 454.45 581.55 C452.69,579.78 452.00,578.00 452.00,575.20 C452.00,570.19 454.36,568.00 459.76,568.00 C462.99,568.00 464.29,568.55 465.93,570.63 C470.23,576.11 466.74,584.00 460.00,584.00 C458.05,584.00 456.00,583.09 454.45,581.55 ZM 472.25 563.00 C469.57,561.38 469.00,560.41 469.00,557.51 C469.00,553.13 471.92,550.00 476.00,550.00 C481.98,550.00 485.20,557.24 481.25,561.80 C478.61,564.85 475.88,565.22 472.25,563.00 Z" fill="rgb(253,253,253)"/>
</g>
</svg>